#!OML:ASF F:\VICON\USERDATA\INSTALL\Justin_Nancy\Justin_Nancy.ASF
:FULLY-SPECIFIED
:DEGREES
97
root -7.7744 15.8268 0.763409 -15.7024 46.9361 -19.3597
lowerback 16.7251 4.30058 6.57295
upperback 3.08254 7.59647 7.68124
thorax -6.26626 3.74116 2.85796
lowerneck -16.8724 -1.62118 -6.07026
upperneck 20.0926 -0.782511 1.19533
head 9.14268 -0.661858 1.32248
rclavicle -2.10712e-014 -1.05753e-013
rhumerus -28.3833 32.2211 -79.4478
rradius 118.012
rwrist -11.8167
rhand -9.42493 24.4541
rfingers 7.12502
rthumb 16.5374 -4.86122
lclavicle -2.10712e-014 -1.05753e-013
lhumerus -57.4853 0.697872 81.1048
lradius 106.269
lwrist 20.1177
lhand -16.289 9.75842
lfingers 7.12502
lthumb 9.92134 39.5046
rfemur 3.83902 -9.64579 12.4366
rtibia 40.8492
rfoot -16.0192 -0.492905
rtoes -19.7184
lfemur -43.9141 9.83087 -20.8994
ltibia 78.9328
lfoot -16.639 -6.14965
ltoes -11.9163
98
root -7.55555 15.9584 0.982983 -16.4759 48.2482 -20.3731
lowerback 16.1966 4.3782 6.48386
upperback 3.02981 7.63893 7.72017
thorax -6.05277 3.77489 2.9776
lowerneck -17.2905 -1.93754 -6.43193
upperneck 20.2713 -1.17814 1.57214
head 9.30185 -0.834579 1.4608
rclavicle -2.48481e-014 -8.42847e-014
rhumerus -29.0889 31.9521 -80.5676
rradius 118.556
rwrist -12.2417
rhand -8.59165 25.0946
rfingers 7.12502
rthumb 17.3395 -4.15194
lclavicle -2.48481e-014 -8.42847e-014
lhumerus -58.1992 0.22802 81.3727
lradius 106.173
lwrist 18.8657
lhand -17.1058 9.6607
lfingers 7.12502
lthumb 9.13323 39.4429
rfemur 6.22055 -10.0003 12.7853
rtibia 38.3741
rfoot -13.5933 -1.68361
rtoes -40.8189
lfemur -43.4797 9.2977 -20.8365
ltibia 77.123
lfoot -16.0428 -6.89568
ltoes -1.07909
99
root -7.33731 16.076 1.19304 -17.2305 49.6956 -21.4817
lowerback 15.4383 4.4406 6.30104
upperback 3.01028 7.62097 7.78892
thorax -5.69253 3.78665 3.21269
lowerneck -17.6108 -2.2939 -6.6296
upperneck 20.2673 -1.63978 1.76282
head 9.38313 -1.04329 1.49698
rclavicle -6.30147e-014 1.11319e-014
rhumerus -29.7215 31.7689 -81.4407
rradius 118.939
rwrist -12.6597
rhand -9.24904 25.2427
rfingers 7.12502
rthumb 16.7067 -4.05836
lclavicle -6.30147e-014 1.11319e-014
lhumerus -58.6936 -0.187075 81.8348
lradius 106.119
lwrist 18.3507
lhand -18.139 9.80458
lfingers 7.12502
lthumb 8.13617 39.6279
rfemur 8.52605 -10.3755 13.1684
rtibia 35.7995
rfoot -11.2082 -0.591293
rtoes -41.3555
lfemur -43.1811 9.00429 -21.1432
ltibia 75.2097
lfoot -15.8119 -6.41715
ltoes 0.0924787
100
root -7.13032 16.1601 1.40601 -18.0908 51.0441 -22.8146
lowerback 14.7035 4.53771 6.13265
upperback 2.8832 7.66857 7.87472
thorax -5.46201 3.82521 3.44005
lowerneck -17.4224 -2.49558 -6.42762
upperneck 19.8464 -1.97318 1.67395
head 9.2136 -1.18906 1.38781
rclavicle -7.71285e-014 -2.70347e-014
rhumerus -30.5353 31.347 -82.405
rradius 119.173
rwrist -12.8486
rhand -9.61699 25.3498
rfingers 7.12502
rthumb 16.3524 -3.98079
lclavicle -7.71285e-014 -2.70347e-014
lhumerus -59.1707 -0.486174 82.4473
lradius 106.076
lwrist 18.1758
lhand -17.5341 9.28031
lfingers 7.12502
lthumb 8.71995 39.0802
rfemur 10.6775 -10.5062 13.8655
rtibia 33.2256
rfoot -8.01272 0.312378
rtoes -39.6702
lfemur -43.0527 9.19487 -21.6424
ltibia 73.2765
lfoot -15.7984 -5.24025
ltoes -9.19783
101
root -6.92576 16.2511 1.63288 -19.7427 52.2129 -24.8896
lowerback 14.4819 4.56968 6.40443
upperback 2.56352 7.77268 7.92143
thorax -5.65817 3.86803 3.32702
lowerneck -16.6193 -2.57181 -5.78515
upperneck 18.8504 -2.22835 1.28457
head 8.72221 -1.29597 1.11961
rclavicle -7.79236e-014 1.98785e-014
rhumerus -32.142 30.782 -84.1965
rradius 119.447
rwrist -12.5731
rhand -9.48328 25.3823
rfingers 7.12502
rthumb 16.4812 -3.93771
lclavicle -7.79236e-014 1.98785e-014
lhumerus -59.9802 -1.37654 82.3456
lradius 106.267
lwrist 18.4951
lhand -14.8395 8.29466
lfingers 7.12502
lthumb 11.3196 37.9692
rfemur 12.7565 -10.0356 15.4029
rtibia 30.8009
rfoot -4.67754 0.328303
rtoes -38.4429
lfemur -42.7268 9.25157 -21.3482
ltibia 71.5447
lfoot -15.4892 -4.97475
ltoes -13.1076
102
root -6.71665 16.3425 1.85628 -21.3535 53.4181 -26.9236
lowerback 14.3697 4.49456 6.90937
upperback 2.13439 7.75496 7.62088
thorax -5.94647 3.82863 2.72889
lowerneck -16.9476 -2.83968 -6.05
upperneck 19.6123 -2.80273 2.61868
head 9.08591 -1.44299 1.54566
rclavicle -1.32192e-013 1.03368e-014
rhumerus -34.1121 30.0716 -86.7742
rradius 119.564
rwrist -12.091
rhand -9.50519 25.464
rfingers 7.12502
rthumb 16.4601 -3.8577
lclavicle -1.32192e-013 1.03368e-014
lhumerus -60.9474 -2.84382 81.41
lradius 106.71
lwrist 19.6079
lhand -12.0776 7.22954
lfingers 7.12502
lthumb 13.9822 36.7393
rfemur 14.5425 -9.02942 17.0636
rtibia 28.5676
rfoot -1.20786 0.19026
rtoes -37.9073
lfemur -42.3967 9.06407 -21.0114
ltibia 69.9992
lfoot -14.9736 -5.39862
ltoes -10.6222
103
root -6.49907 16.4218 2.0568 -22.3432 54.623 -28.5362
lowerback 14.011 4.38883 7.44247
upperback 1.69425 7.64787 7.13335
thorax -6.07952 3.73984 1.95645
lowerneck -17.1611 -3.0264 -6.15139
upperneck 19.845 -3.23081 3.52435
head 9.24127 -1.54927 1.81827
rclavicle -5.55603e-014 -6.52014e-014
rhumerus -35.7715 29.4961 -89.062
rradius 119.461
rwrist -11.5577
rhand -10.0963 25.6332
rfingers 7.12502
rthumb 15.8909 -3.73476
lclavicle -5.55603e-014 -6.52014e-014
lhumerus -61.6396 -3.81694 80.6754
lradius 107.001
lwrist 20.192
lhand -10.0513 6.94235
lfingers 7.12502
lthumb 15.9342 36.3069
rfemur 15.7365 -7.72516 18.4481
rtibia 26.5275
rfoot 2.7739 -0.132603
rtoes -35.197
lfemur -42.3602 9.15959 -21.2332
ltibia 68.5285
lfoot -14.6091 -5.74652
ltoes -10.2971
104
root -6.27335 16.4896 2.24456 -22.841 55.7741 -29.8248
lowerback 13.3624 4.39468 7.69123
upperback 1.27515 7.61169 6.71779
thorax -6.07647 3.69882 1.42857
lowerneck -17.5012 -3.23347 -6.55221
upperneck 20.1523 -3.61166 4.47203
head 9.45677 -1.64744 2.16259
rclavicle 7.25564e-015 -3.57812e-015
rhumerus -37.0942 28.7979 -90.6363
rradius 119.245
rwrist -10.8969
rhand -10.3933 25.8787
rfingers 7.12502
rthumb 15.6049 -3.51186
lclavicle 7.25564e-015 -3.57812e-015
lhumerus -62.0654 -4.34474 80.6806
lradius 107.05
lwrist 19.5226
lhand -9.26125 7.40787
lfingers 7.12502
lthumb 16.6949 36.7099
rfemur 16.3308 -6.17077 19.6236
rtibia 24.8467
rfoot 7.27643 -0.154882
rtoes -32.9398
lfemur -42.5229 9.29468 -21.7346
ltibia 67.185
lfoot -14.132 -6.39788
ltoes -9.44846
105
root -6.04782 16.5433 2.44405 -23.2271 56.8165 -31.3887
lowerback 11.9709 4.37008 7.52027
upperback 0.979728 7.40077 6.58943
thorax -5.62233 3.61213 1.52688
lowerneck -17.6578 -3.33737 -6.43527
upperneck 20.0084 -3.86243 4.82984
head 9.45494 -1.71345 2.23132
rclavicle -7.34509e-014 4.73108e-014
rhumerus -38.1999 28.4771 -91.9393
rradius 118.874
rwrist -10.2531
rhand -10.1716 26.2628
rfingers 7.12502
rthumb 15.8184 -3.11092
lclavicle -7.34509e-014 4.73108e-014
lhumerus -62.344 -4.28294 81.2327
lradius 107.124
lwrist 18.7234
lhand -10.1475 8.2187
lfingers 7.12502
lthumb 15.8416 37.5906
rfemur 16.2713 -4.42402 21.1317
rtibia 23.7166
rfoot 11.4078 0.607414
rtoes -33.4965
lfemur -43.0394 9.18422 -22.0295
ltibia 65.9561
lfoot -13.3848 -7.23904
ltoes -8.04699
